<?xml version="1.0" encoding="UTF-8"?>
<svg width="1024px" height="1024px" viewBox="0 0 1024 1024" version="1.1" xmlns="http://www.w3.org/2000/svg">
    <title>Spy</title>
    <g id="Spy" stroke="none">
        <path id="Glasses" d="M204.12,277.33 L819.88,277.33 C836.47,277.33 849.92,290.78 849.92,307.37 L849.92,311.13 C849.92,327.71 836.47,341.16 819.88,341.16 L204.12,341.16 C187.53,341.16 174.08,327.71 174.08,311.13 L174.08,307.37 C174.08,290.78 187.53,277.33 204.12,277.33 Z M196.61,299.86 L481.96,299.86 L475.96,389.97 C471.45,453.8 436.91,495.1 384.34,495.1 L290.47,495.1 C237.91,495.1 208.62,457.56 204.12,408.75 Z M542.04,299.86 L827.39,299.86 L819.88,408.75 C815.38,457.56 786.09,495.1 733.53,495.1 L639.66,495.1 C587.09,495.1 552.55,453.8 548.04,389.97 Z" fill="#FFFFFF"/>
        <path id="Snout" d="M662.19,641.54 L662.18,644.28 L662.17,646.21 L662.15,647.91 L662.12,649.49 L662.08,650.98 L662.03,652.41 L661.97,653.77 L661.91,655.09 L661.83,656.38 L661.75,657.63 L661.65,658.85 L661.55,660.04 L661.44,661.21 L661.32,662.36 L661.2,663.49 L661.06,664.6 L660.92,665.69 L660.76,666.77 L660.6,667.83 L660.43,668.88 L660.25,669.91 L660.06,670.94 L659.86,671.95 L659.66,672.94 L659.44,673.93 L659.22,674.9 L658.98,675.87 L658.74,676.82 L658.49,677.77 L658.23,678.71 L657.97,679.63 L657.69,680.55 L657.41,681.46 L657.11,682.36 L656.81,683.25 L656.5,684.14 L656.18,685.01 L655.85,685.88 L655.52,686.74 L655.17,687.59 L654.82,688.44 L654.45,689.28 L654.08,690.11 L653.7,690.93 L653.31,691.75 L652.92,692.56 L652.51,693.37 L652.1,694.16 L651.67,694.95 L651.24,695.74 L650.8,696.51 L650.35,697.28 L649.89,698.05 L649.43,698.8 L648.95,699.56 L648.47,700.3 L647.98,701.04 L647.48,701.77 L646.97,702.5 L646.46,703.22 L645.93,703.93 L645.4,704.64 L644.85,705.34 L644.3,706.04 L643.74,706.73 L643.18,707.41 L642.6,708.09 L642.02,708.76 L641.42,709.43 L640.82,710.09 L640.21,710.74 L639.59,711.39 L638.97,712.03 L638.33,712.67 L637.69,713.3 L637.04,713.93 L636.38,714.55 L635.71,715.16 L635.03,715.77 L634.35,716.37 L633.65,716.96 L632.95,717.55 L632.24,718.14 L631.52,718.72 L630.8,719.29 L630.06,719.86 L629.32,720.42 L628.57,720.97 L627.81,721.52 L627.04,722.06 L626.26,722.6 L625.48,723.13 L624.69,723.66 L623.89,724.18 L623.08,724.69 L622.26,725.2 L621.43,725.71 L620.6,726.2 L619.75,726.69 L618.9,727.18 L618.04,727.66 L617.18,728.13 L616.3,728.6 L615.42,729.06 L614.52,729.52 L613.62,729.97 L612.71,730.41 L611.79,730.85 L610.87,731.28 L609.93,731.71 L608.99,732.13 L608.04,732.55 L607.08,732.96 L606.11,733.36 L605.13,733.76 L604.15,734.15 L603.15,734.53 L602.15,734.91 L601.14,735.29 L600.12,735.65 L599.09,736.02 L598.05,736.37 L597.01,736.72 L595.95,737.07 L594.89,737.4 L593.81,737.74 L592.73,738.06 L591.64,738.38 L590.54,738.7 L589.43,739 L588.31,739.31 L587.18,739.6 L586.04,739.89 L584.89,740.18 L583.74,740.45 L582.57,740.73 L581.39,740.99 L580.2,741.25 L579.01,741.51 L577.8,741.75 L576.58,742 L575.35,742.23 L574.11,742.46 L572.86,742.69 L571.59,742.9 L570.32,743.11 L569.03,743.32 L567.73,743.52 L566.42,743.71 L565.1,743.9 L563.76,744.08 L562.41,744.26 L561.05,744.43 L559.67,744.59 L558.28,744.74 L556.87,744.89 L555.44,745.04 L554,745.18 L552.54,745.31 L551.06,745.44 L549.57,745.56 L548.05,745.67 L546.51,745.78 L544.95,745.88 L543.36,745.97 L541.75,746.06 L540.11,746.15 L538.44,746.22 L536.73,746.29 L534.99,746.36 L533.2,746.42 L531.37,746.47 L529.48,746.52 L527.53,746.56 L525.5,746.59 L523.37,746.62 L521.11,746.64 L518.67,746.65 L515.91,746.66 L512,746.67 L508.09,746.66 L505.33,746.65 L502.89,746.64 L500.63,746.62 L498.5,746.59 L496.47,746.56 L494.52,746.52 L492.63,746.47 L490.8,746.42 L489.01,746.36 L487.27,746.29 L485.56,746.22 L483.89,746.15 L482.25,746.06 L480.64,745.97 L479.05,745.88 L477.49,745.78 L475.95,745.67 L474.43,745.56 L472.94,745.44 L471.46,745.31 L470,745.18 L468.56,745.04 L467.13,744.89 L465.72,744.74 L464.33,744.59 L462.95,744.43 L461.59,744.26 L460.24,744.08 L458.9,743.9 L457.58,743.71 L456.27,743.52 L454.97,743.32 L453.68,743.11 L452.41,742.9 L451.14,742.69 L449.89,742.46 L448.65,742.23 L447.42,742 L446.2,741.75 L444.99,741.51 L443.8,741.25 L442.61,740.99 L441.43,740.73 L440.26,740.45 L439.11,740.18 L437.96,739.89 L436.82,739.6 L435.69,739.31 L434.57,739 L433.46,738.7 L432.36,738.38 L431.27,738.06 L430.19,737.74 L429.11,737.4 L428.05,737.07 L426.99,736.72 L425.95,736.37 L424.91,736.02 L423.88,735.65 L422.86,735.29 L421.85,734.91 L420.85,734.53 L419.85,734.15 L418.87,733.76 L417.89,733.36 L416.92,732.96 L415.96,732.55 L415.01,732.13 L414.07,731.71 L413.13,731.28 L412.21,730.85 L411.29,730.41 L410.38,729.97 L409.48,729.52 L408.58,729.06 L407.7,728.6 L406.82,728.13 L405.96,727.66 L405.1,727.18 L404.25,726.69 L403.4,726.2 L402.57,725.71 L401.74,725.2 L400.92,724.69 L400.11,724.18 L399.31,723.66 L398.52,723.13 L397.74,722.6 L396.96,722.06 L396.19,721.52 L395.43,720.97 L394.68,720.42 L393.94,719.86 L393.2,719.29 L392.48,718.72 L391.76,718.14 L391.05,717.55 L390.35,716.96 L389.65,716.37 L388.97,715.77 L388.29,715.16 L387.62,714.55 L386.96,713.93 L386.31,713.3 L385.67,712.67 L385.03,712.03 L384.41,711.39 L383.79,710.74 L383.18,710.09 L382.58,709.43 L381.98,708.76 L381.4,708.09 L380.82,707.41 L380.26,706.73 L379.7,706.04 L379.15,705.34 L378.6,704.64 L378.07,703.93 L377.54,703.22 L377.03,702.5 L376.52,701.77 L376.02,701.04 L375.53,700.3 L375.05,699.56 L374.57,698.8 L374.11,698.05 L373.65,697.28 L373.2,696.51 L372.76,695.74 L372.33,694.95 L371.9,694.16 L371.49,693.37 L371.08,692.56 L370.69,691.75 L370.3,690.93 L369.92,690.11 L369.55,689.28 L369.18,688.44 L368.83,687.59 L368.48,686.74 L368.15,685.88 L367.82,685.01 L367.5,684.14 L367.19,683.25 L366.89,682.36 L366.59,681.46 L366.31,680.55 L366.03,679.63 L365.77,678.71 L365.51,677.77 L365.26,676.82 L365.02,675.87 L364.78,674.9 L364.56,673.93 L364.34,672.94 L364.14,671.95 L363.94,670.94 L363.75,669.91 L363.57,668.88 L363.4,667.83 L363.24,666.77 L363.08,665.69 L362.94,664.6 L362.8,663.49 L362.68,662.36 L362.56,661.21 L362.45,660.04 L362.35,658.85 L362.25,657.63 L362.17,656.38 L362.09,655.09 L362.03,653.77 L361.97,652.41 L361.92,650.98 L361.88,649.49 L361.85,647.91 L361.83,646.21 L361.82,644.28 L361.81,641.54 L361.82,638.8 L361.83,636.87 L361.85,635.16 L361.88,633.58 L361.92,632.09 L361.97,630.67 L362.03,629.3 L362.09,627.98 L362.17,626.7 L362.25,625.45 L362.35,624.22 L362.45,623.03 L362.56,621.86 L362.68,620.71 L362.8,619.58 L362.94,618.47 L363.08,617.38 L363.24,616.3 L363.4,615.24 L363.57,614.19 L363.75,613.16 L363.94,612.14 L364.14,611.13 L364.34,610.13 L364.56,609.14 L364.78,608.17 L365.02,607.2 L365.26,606.25 L365.51,605.3 L365.77,604.37 L366.03,603.44 L366.31,602.52 L366.59,601.61 L366.89,600.71 L367.19,599.82 L367.5,598.94 L367.82,598.06 L368.15,597.19 L368.48,596.33 L368.83,595.48 L369.18,594.63 L369.55,593.79 L369.92,592.96 L370.3,592.14 L370.69,591.32 L371.08,590.51 L371.49,589.71 L371.9,588.91 L372.33,588.12 L372.76,587.34 L373.2,586.56 L373.65,585.79 L374.11,585.02 L374.57,584.27 L375.05,583.52 L375.53,582.77 L376.02,582.03 L376.52,581.3 L377.03,580.57 L377.54,579.85 L378.07,579.14 L378.6,578.43 L379.15,577.73 L379.7,577.03 L380.26,576.34 L380.82,575.66 L381.4,574.98 L381.98,574.31 L382.58,573.64 L383.18,572.98 L383.79,572.33 L384.41,571.68 L385.03,571.04 L385.67,570.4 L386.31,569.77 L386.96,569.14 L387.62,568.53 L388.29,567.91 L388.97,567.31 L389.65,566.7 L390.35,566.11 L391.05,565.52 L391.76,564.93 L392.48,564.36 L393.2,563.78 L393.94,563.22 L394.68,562.66 L395.43,562.1 L396.19,561.55 L396.96,561.01 L397.74,560.47 L398.52,559.94 L399.31,559.41 L400.11,558.89 L400.92,558.38 L401.74,557.87 L402.57,557.37 L403.4,556.87 L404.25,556.38 L405.1,555.89 L405.96,555.41 L406.82,554.94 L407.7,554.47 L408.58,554.01 L409.48,553.55 L410.38,553.1 L411.29,552.66 L412.21,552.22 L413.13,551.79 L414.07,551.36 L415.01,550.94 L415.96,550.52 L416.92,550.12 L417.89,549.71 L418.87,549.32 L419.85,548.92 L420.85,548.54 L421.85,548.16 L422.86,547.79 L423.88,547.42 L424.91,547.06 L425.95,546.7 L426.99,546.35 L428.05,546.01 L429.11,545.67 L430.19,545.34 L431.27,545.01 L432.36,544.69 L433.46,544.38 L434.57,544.07 L435.69,543.77 L436.82,543.47 L437.96,543.18 L439.11,542.9 L440.26,542.62 L441.43,542.34 L442.61,542.08 L443.8,541.82 L444.99,541.57 L446.2,541.32 L447.42,541.08 L448.65,540.84 L449.89,540.61 L451.14,540.39 L452.41,540.17 L453.68,539.96 L454.97,539.75 L456.27,539.55 L457.58,539.36 L458.9,539.17 L460.24,538.99 L461.59,538.82 L462.95,538.65 L464.33,538.48 L465.72,538.33 L467.13,538.18 L468.56,538.03 L470,537.89 L471.46,537.76 L472.94,537.64 L474.43,537.52 L475.95,537.4 L477.49,537.29 L479.05,537.19 L480.64,537.1 L482.25,537.01 L483.89,536.93 L485.56,536.85 L487.27,536.78 L489.01,536.71 L490.8,536.65 L492.63,536.6 L494.52,536.56 L496.47,536.52 L498.5,536.48 L500.63,536.45 L502.89,536.43 L505.33,536.42 L508.09,536.41 L512,536.41 L515.91,536.41 L518.67,536.42 L521.11,536.43 L523.37,536.45 L525.5,536.48 L527.53,536.52 L529.48,536.56 L531.37,536.6 L533.2,536.65 L534.99,536.71 L536.73,536.78 L538.44,536.85 L540.11,536.93 L541.75,537.01 L543.36,537.1 L544.95,537.19 L546.51,537.29 L548.05,537.4 L549.57,537.52 L551.06,537.64 L552.54,537.76 L554,537.89 L555.44,538.03 L556.87,538.18 L558.28,538.33 L559.67,538.48 L561.05,538.65 L562.41,538.82 L563.76,538.99 L565.1,539.17 L566.42,539.36 L567.73,539.55 L569.03,539.75 L570.32,539.96 L571.59,540.17 L572.86,540.39 L574.11,540.61 L575.35,540.84 L576.58,541.08 L577.8,541.32 L579.01,541.57 L580.2,541.82 L581.39,542.08 L582.57,542.34 L583.74,542.62 L584.89,542.9 L586.04,543.18 L587.18,543.47 L588.31,543.77 L589.43,544.07 L590.54,544.38 L591.64,544.69 L592.73,545.01 L593.81,545.34 L594.89,545.67 L595.95,546.01 L597.01,546.35 L598.05,546.7 L599.09,547.06 L600.12,547.42 L601.14,547.79 L602.15,548.16 L603.15,548.54 L604.15,548.92 L605.13,549.32 L606.11,549.71 L607.08,550.12 L608.04,550.52 L608.99,550.94 L609.93,551.36 L610.87,551.79 L611.79,552.22 L612.71,552.66 L613.62,553.1 L614.52,553.55 L615.42,554.01 L616.3,554.47 L617.18,554.94 L618.04,555.41 L618.9,555.89 L619.75,556.38 L620.6,556.87 L621.43,557.37 L622.26,557.87 L623.08,558.38 L623.89,558.89 L624.69,559.41 L625.48,559.94 L626.26,560.47 L627.04,561.01 L627.81,561.55 L628.57,562.1 L629.32,562.66 L630.06,563.22 L630.8,563.78 L631.52,564.36 L632.24,564.93 L632.95,565.52 L633.65,566.11 L634.35,566.7 L635.03,567.31 L635.71,567.91 L636.38,568.53 L637.04,569.14 L637.69,569.77 L638.33,570.4 L638.97,571.04 L639.59,571.68 L640.21,572.33 L640.82,572.98 L641.42,573.64 L642.02,574.31 L642.6,574.98 L643.18,575.66 L643.74,576.34 L644.3,577.03 L644.85,577.73 L645.4,578.43 L645.93,579.14 L646.46,579.85 L646.97,580.57 L647.48,581.3 L647.98,582.03 L648.47,582.77 L648.95,583.52 L649.43,584.27 L649.89,585.02 L650.35,585.79 L650.8,586.56 L651.24,587.34 L651.67,588.12 L652.1,588.91 L652.51,589.71 L652.92,590.51 L653.31,591.32 L653.7,592.14 L654.08,592.96 L654.45,593.79 L654.82,594.63 L655.17,595.48 L655.52,596.33 L655.85,597.19 L656.18,598.06 L656.5,598.94 L656.81,599.82 L657.11,600.71 L657.41,601.61 L657.69,602.52 L657.97,603.44 L658.23,604.37 L658.49,605.3 L658.74,606.25 L658.98,607.2 L659.22,608.17 L659.44,609.14 L659.66,610.13 L659.86,611.13 L660.06,612.14 L660.25,613.16 L660.43,614.19 L660.6,615.24 L660.76,616.3 L660.92,617.38 L661.06,618.47 L661.2,619.58 L661.32,620.71 L661.44,621.86 L661.55,623.03 L661.65,624.22 L661.75,625.45 L661.83,626.7 L661.91,627.98 L661.97,629.3 L662.03,630.67 L662.08,632.09 L662.12,633.58 L662.15,635.16 L662.17,636.87 L662.18,638.8 Z M487.22,641.54 C487.22,668.08 474.11,689.6 457.93,689.6 C441.76,689.6 428.65,668.08 428.65,641.54 C428.65,614.99 441.76,593.48 457.93,593.48 C474.11,593.48 487.22,614.99 487.22,641.54 Z M595.35,641.54 C595.35,668.08 582.24,689.6 566.07,689.6 C549.89,689.6 536.78,668.08 536.78,641.54 C536.78,614.99 549.89,593.48 566.07,593.48 C582.24,593.48 595.35,614.99 595.35,641.54 Z" fill="#FFFFFF" fill-rule="evenodd"/>
    </g>
</svg>
